<svg width="24" height="24" viewBox="0 0 24 24" fill="none" xmlns="http://www.w3.org/2000/svg">
<path d="M5.36719 12.0613C4.01472 11.5801 3.33848 11.3394 3.137 10.9745C2.9624 10.6582 2.95423 10.2763 3.11515 9.95291C3.30085 9.57966 3.96619 9.31035 5.29686 8.77175L17.8395 3.69497C19.15 3.1645 19.8053 2.89927 20.2193 3.03526C20.5786 3.1533 20.8604 3.43511 20.9785 3.79443C21.1145 4.2084 20.8492 4.86368 20.3188 6.17424L15.242 18.7168C14.7034 20.0475 14.4341 20.7129 14.0608 20.8986C13.7374 21.0595 13.3555 21.0513 13.0392 20.8767C12.6743 20.6752 12.4336 19.999 11.9524 18.6465L10.479 14.5057C10.3854 14.2426 10.3386 14.111 10.2621 14.0012C10.1944 13.9038 10.1099 13.8193 10.0125 13.7516C9.90267 13.6751 9.7711 13.6283 9.50798 13.5347L5.36719 12.0613Z" stroke="black" stroke-width="2" stroke-linecap="round" stroke-linejoin="round"/>
</svg>
